<svg width="84" height="56" viewBox="0 0 84 56" fill="none" xmlns="http://www.w3.org/2000/svg">
<path d="M26.7495 55.7427C26.7495 52.2234 26.0576 48.7385 24.7133 45.487C23.369 42.2356 21.3986 39.2812 18.9147 36.7927C16.4308 34.3041 13.482 32.3301 10.2366 30.9833C6.99118 29.6365 3.51279 28.9433 0 28.9433L1.16926e-06 55.7427H26.7495Z" fill="#9E2F55"/>
<path fill-rule="evenodd" clip-rule="evenodd" d="M2.03618 16.5437C0.691897 19.7952 0 23.28 0 26.7994H21.3996C24.3542 26.7994 26.7495 24.3997 26.7495 21.4395V0C23.2367 0 19.7583 0.693186 16.5129 2.03998C13.2675 3.38678 10.3187 5.36081 7.83474 7.84936C5.35082 10.3379 3.38047 13.2923 2.03618 16.5437ZM20.8646 16.0796C18.4708 15.5266 16.6017 13.654 16.0497 11.2557C15.4977 13.654 13.6285 15.5266 11.2348 16.0796C13.6285 16.6326 15.4977 18.5053 16.0497 20.9035C16.6017 18.5053 18.4708 16.6326 20.8646 16.0796Z" fill="#18437E"/>
<path d="M34.3463 19.8315L30.58 7.48239H32.9767L36.0583 17.6361L39.1912 7.48239H41.5879L37.8216 19.8315H34.3463Z" fill="#18437E"/>
<path d="M43.0486 19.8315V7.48239H45.3769V19.8315H43.0486Z" fill="#18437E"/>
<path d="M52.5996 20.0888C51.6866 20.0888 50.862 19.9287 50.1258 19.6086C49.3954 19.2827 48.7933 18.8196 48.3197 18.2193C47.8518 17.6133 47.555 16.8929 47.4295 16.0582L49.8605 15.698C50.0317 16.4069 50.3855 16.9529 50.9219 17.336C51.4583 17.719 52.0689 17.9106 52.7537 17.9106C53.136 17.9106 53.507 17.8505 53.8665 17.7305C54.226 17.6104 54.5199 17.4332 54.7481 17.1988C54.9821 16.9644 55.0991 16.6757 55.0991 16.3326C55.0991 16.2068 55.0791 16.0868 55.0392 15.9724C55.0049 15.8524 54.945 15.7409 54.8594 15.638C54.7738 15.5351 54.6511 15.4379 54.4913 15.3464C54.3373 15.2549 54.1404 15.172 53.9007 15.0977L50.6993 14.1544C50.4597 14.0858 50.18 13.9886 49.8605 13.8628C49.5466 13.737 49.2413 13.5569 48.9446 13.3225C48.6478 13.0881 48.3996 12.7794 48.1999 12.3963C48.0058 12.0076 47.9088 11.5187 47.9088 10.9299C47.9088 10.1009 48.1171 9.41194 48.5337 8.86309C48.9503 8.31424 49.5067 7.90546 50.2029 7.63675C50.8991 7.36804 51.6694 7.23655 52.514 7.24227C53.3643 7.2537 54.1233 7.39949 54.7909 7.67963C55.4586 7.95978 56.0178 8.36856 56.4687 8.90597C56.9195 9.43767 57.2447 10.0894 57.4445 10.8613L54.9279 11.29C54.8366 10.8898 54.6682 10.5525 54.4229 10.2781C54.1775 10.0037 53.8836 9.795 53.5412 9.65207C53.2045 9.50914 52.8507 9.43196 52.4798 9.42052C52.1146 9.40909 51.7693 9.46054 51.444 9.57488C51.1245 9.68351 50.862 9.84359 50.6565 10.0551C50.4568 10.2667 50.3569 10.5182 50.3569 10.8098C50.3569 11.0785 50.4397 11.2986 50.6052 11.4701C50.7707 11.6359 50.979 11.7703 51.23 11.8732C51.4811 11.9761 51.7379 12.0619 52.0004 12.1305L54.1404 12.7136C54.4599 12.7994 54.8138 12.9137 55.2018 13.0567C55.5898 13.1939 55.9608 13.3883 56.3146 13.6398C56.6741 13.8857 56.968 14.2115 57.1962 14.6175C57.4302 15.0234 57.5472 15.5379 57.5472 16.1611C57.5472 16.8243 57.4074 17.4046 57.1278 17.902C56.8539 18.3937 56.4829 18.8025 56.015 19.1283C55.547 19.4485 55.0163 19.6886 54.4229 19.8487C53.8351 20.0088 53.2273 20.0888 52.5996 20.0888Z" fill="#18437E"/>
<path d="M44.2436 0C44.5809 1.46558 45.7232 2.60998 47.1861 2.94793C45.7232 3.28589 44.5809 4.43028 44.2436 5.89587C43.9063 4.43028 42.764 3.28589 41.3012 2.94793C42.764 2.60998 43.9063 1.46558 44.2436 0Z" fill="#9E2F55"/>
<path d="M36.9827 38.0444C35.7501 38.0444 34.6859 37.7757 33.7899 37.2383C32.8997 36.7009 32.2121 35.9491 31.727 34.9828C31.2477 34.0166 31.008 32.8932 31.008 31.6126C31.008 30.3319 31.2477 29.2085 31.727 28.2423C32.2121 27.2761 32.8997 26.5242 33.7899 25.9868C34.6859 25.4494 35.7501 25.1807 36.9827 25.1807C38.398 25.1807 39.5849 25.5323 40.5436 26.2355C41.508 26.9387 42.1871 27.8907 42.5809 29.0913L40.2355 29.743C40.0072 28.9941 39.622 28.4138 39.0799 28.0021C38.5378 27.5848 37.8387 27.3761 36.9827 27.3761C36.2009 27.3761 35.5475 27.5505 35.0225 27.8992C34.5032 28.248 34.1123 28.7397 33.8498 29.3743C33.5873 30.0089 33.4561 30.755 33.4561 31.6126C33.4561 32.4701 33.5873 33.2162 33.8498 33.8508C34.1123 34.4855 34.5032 34.9771 35.0225 35.3259C35.5475 35.6746 36.2009 35.849 36.9827 35.849C37.8387 35.849 38.5378 35.6403 39.0799 35.223C39.622 34.8056 40.0072 34.2253 40.2355 33.4821L42.5809 34.1338C42.1871 35.3345 41.508 36.2864 40.5436 36.9896C39.5849 37.6928 38.398 38.0444 36.9827 38.0444Z" fill="#18437E"/>
<path d="M49.7556 38.0444C48.523 38.0444 47.4587 37.7757 46.5628 37.2383C45.6726 36.7009 44.9849 35.9491 44.4999 34.9828C44.0205 34.0166 43.7808 32.8932 43.7808 31.6126C43.7808 30.3319 44.0205 29.2085 44.4999 28.2423C44.9849 27.2761 45.6726 26.5242 46.5628 25.9868C47.4587 25.4494 48.523 25.1807 49.7556 25.1807C50.9882 25.1807 52.0496 25.4494 52.9399 25.9868C53.8358 26.5242 54.5234 27.2761 55.0028 28.2423C55.4878 29.2085 55.7304 30.3319 55.7304 31.6126C55.7304 32.8932 55.4878 34.0166 55.0028 34.9828C54.5234 35.9491 53.8358 36.7009 52.9399 37.2383C52.0496 37.7757 50.9882 38.0444 49.7556 38.0444ZM49.7556 35.849C50.5374 35.8604 51.188 35.6918 51.7073 35.343C52.2265 34.9943 52.6146 34.4997 52.8714 33.8594C53.1339 33.2191 53.2651 32.4701 53.2651 31.6126C53.2651 30.755 53.1339 30.0117 52.8714 29.3828C52.6146 28.754 52.2265 28.2651 51.7073 27.9164C51.188 27.5676 50.5374 27.3875 49.7556 27.3761C48.9738 27.3647 48.3233 27.5333 47.804 27.8821C47.2847 28.2308 46.8938 28.7254 46.6313 29.3657C46.3745 30.006 46.2461 30.755 46.2461 31.6126C46.2461 32.4701 46.3745 33.2134 46.6313 33.8423C46.8938 34.4712 47.2847 34.96 47.804 35.3087C48.3233 35.6575 48.9738 35.8376 49.7556 35.849Z" fill="#18437E"/>
<path d="M57.4391 37.7871V25.438H59.5277L63.6022 33.6364L67.6767 25.438H69.7653V37.7871H67.5911V30.4119L64.0131 37.7871H63.1913L59.6133 30.4119V37.7871H57.4391Z" fill="#18437E"/>
<path d="M31.6928 55.7427V43.3936H36.8971C37.017 43.3936 37.1768 43.3993 37.3765 43.4107C37.5819 43.4164 37.7645 43.4336 37.9243 43.4622C38.6605 43.5765 39.2625 43.8195 39.7304 44.1911C40.2041 44.5627 40.5522 45.0315 40.7747 45.5975C40.9973 46.1578 41.1086 46.7839 41.1086 47.4757C41.1086 48.1674 40.9944 48.7963 40.7662 49.3623C40.5436 49.9226 40.1955 50.3886 39.7219 50.7602C39.2539 51.1318 38.6548 51.3748 37.9243 51.4891C37.7645 51.512 37.5819 51.5292 37.3765 51.5406C37.1711 51.552 37.0113 51.5577 36.8971 51.5577H34.021V55.7427H31.6928ZM34.021 49.3795H36.7944C36.9143 49.3795 37.0455 49.3738 37.1882 49.3623C37.3308 49.3509 37.4621 49.328 37.5819 49.2937C37.8958 49.208 38.1383 49.065 38.3095 48.8649C38.4807 48.6591 38.5977 48.4333 38.6605 48.1874C38.7289 47.9359 38.7632 47.6986 38.7632 47.4757C38.7632 47.2527 38.7289 47.0183 38.6605 46.7724C38.5977 46.5209 38.4807 46.295 38.3095 46.0949C38.1383 45.8891 37.8958 45.7433 37.5819 45.6576C37.4621 45.6233 37.3308 45.6004 37.1882 45.589C37.0455 45.5775 36.9143 45.5718 36.7944 45.5718H34.021V49.3795Z" fill="#18437E"/>
<path d="M42.9984 55.7427V43.3936H45.3267V53.5645H50.6338V55.7427H42.9984Z" fill="#18437E"/>
<path d="M51.2332 55.7427L54.9996 43.3936H58.4749L62.2412 55.7427H59.8444L56.489 44.8515H56.9341L53.63 55.7427H51.2332ZM53.493 53.17V50.9917H59.9985V53.17H53.493Z" fill="#18437E"/>
<path d="M68.0976 56C67.1845 56 66.3599 55.8399 65.6238 55.5198C64.8934 55.1939 64.2913 54.7308 63.8177 54.1305C63.3497 53.5244 63.053 52.8041 62.9274 51.9694L65.3584 51.6092C65.5296 52.3181 65.8834 52.8641 66.4199 53.2472C66.9563 53.6302 67.5669 53.8217 68.2517 53.8217C68.634 53.8217 69.0049 53.7617 69.3644 53.6417C69.7239 53.5216 70.0178 53.3444 70.2461 53.11C70.4801 52.8755 70.5971 52.5868 70.5971 52.2438C70.5971 52.118 70.5771 51.998 70.5371 51.8836C70.5029 51.7636 70.443 51.6521 70.3574 51.5492C70.2718 51.4463 70.1491 51.3491 69.9893 51.2576C69.8352 51.1661 69.6384 51.0832 69.3987 51.0089L66.1973 50.0655C65.9576 49.9969 65.678 49.8997 65.3584 49.774C65.0446 49.6482 64.7393 49.4681 64.4425 49.2337C64.1458 48.9993 63.8976 48.6906 63.6978 48.3075C63.5038 47.9187 63.4068 47.4299 63.4068 46.841C63.4068 46.012 63.6151 45.3231 64.0317 44.7743C64.4482 44.2254 65.0046 43.8166 65.7008 43.5479C66.397 43.2792 67.1674 43.1477 68.012 43.1534C68.8623 43.1649 69.6212 43.3107 70.2889 43.5908C70.9566 43.871 71.5158 44.2797 71.9666 44.8172C72.4174 45.3489 72.7427 46.0006 72.9424 46.7724L70.4259 47.2012C70.3346 46.801 70.1662 46.4637 69.9208 46.1893C69.6755 45.9149 69.3816 45.7062 69.0392 45.5632C68.7025 45.4203 68.3487 45.3431 67.9777 45.3317C67.6125 45.3203 67.2673 45.3717 66.942 45.4861C66.6224 45.5947 66.3599 45.7548 66.1545 45.9663C65.9548 46.1778 65.8549 46.4294 65.8549 46.721C65.8549 46.9897 65.9377 47.2098 66.1031 47.3813C66.2686 47.5471 66.4769 47.6815 66.728 47.7844C66.9791 47.8873 67.2359 47.973 67.4984 48.0417L69.6384 48.6248C69.9579 48.7106 70.3117 48.8249 70.6998 48.9678C71.0878 49.1051 71.4587 49.2994 71.8125 49.551C72.1721 49.7968 72.466 50.1227 72.6942 50.5286C72.9282 50.9346 73.0452 51.4491 73.0452 52.0723C73.0452 52.7355 72.9054 53.3158 72.6257 53.8132C72.3518 54.3049 71.9809 54.7136 71.513 55.0395C71.045 55.3597 70.5143 55.5998 69.9208 55.7599C69.3331 55.92 68.7253 56 68.0976 56Z" fill="#18437E"/>
<path d="M77.7856 55.7427V45.5718H73.8994V43.3936H84V45.5718H80.1138V55.7427H77.7856Z" fill="#18437E"/>
</svg>
