<svg width="32" height="33" viewBox="0 0 32 33" fill="none" xmlns="http://www.w3.org/2000/svg">
<path d="M4.66663 7.8383C4.66663 6.36554 5.86053 5.17163 7.33329 5.17163H11.3333C12.8061 5.17163 14 6.36554 14 7.8383V11.8383C14 13.3111 12.8061 14.505 11.3333 14.505H7.33329C5.86053 14.505 4.66663 13.3111 4.66663 11.8383V7.8383Z" stroke="#585858" stroke-width="1.5" stroke-linejoin="round"/>
<path d="M18 7.8383C18 6.36554 19.1939 5.17163 20.6666 5.17163H24.6666C26.1394 5.17163 27.3333 6.36554 27.3333 7.8383V11.8383C27.3333 13.3111 26.1394 14.505 24.6666 14.505H20.6666C19.1939 14.505 18 13.3111 18 11.8383V7.8383Z" stroke="#585858" stroke-width="1.5" stroke-linejoin="round"/>
<path d="M18 21.1716C18 19.6989 19.1939 18.505 20.6666 18.505H24.6666C26.1394 18.505 27.3333 19.6989 27.3333 21.1716V25.1716C27.3333 26.6444 26.1394 27.8383 24.6666 27.8383H20.6666C19.1939 27.8383 18 26.6444 18 25.1716V21.1716Z" stroke="#585858" stroke-width="1.5" stroke-linejoin="round"/>
<path d="M4.66663 21.1716C4.66663 19.6989 5.86053 18.505 7.33329 18.505H11.3333C12.8061 18.505 14 19.6989 14 21.1716V25.1716C14 26.6444 12.8061 27.8383 11.3333 27.8383H7.33329C5.86053 27.8383 4.66663 26.6444 4.66663 25.1716V21.1716Z" stroke="#585858" stroke-width="1.5" stroke-linejoin="round"/>
</svg>
